<mxfile host="Electron" agent="Mozilla/5.0 (Macintosh; Intel Mac OS X 10_15_7) AppleWebKit/537.36 (KHTML, like Gecko) draw.io/24.7.8 Chrome/128.0.6613.36 Electron/32.0.1 Safari/537.36" version="24.7.8">
  <diagram name="Page-1" id="IZn-Gfx55EjcXuPFgdkz">
    <mxGraphModel dx="1318" dy="1681" grid="1" gridSize="10" guides="1" tooltips="1" connect="1" arrows="1" fold="1" page="1" pageScale="1" pageWidth="1169" pageHeight="827" math="0" shadow="0">
      <root>
        <mxCell id="0" />
        <mxCell id="1" parent="0" />
        <mxCell id="H-J13VQ94Ms-UzU_1vvd-47" value="" style="edgeStyle=orthogonalEdgeStyle;rounded=0;orthogonalLoop=1;jettySize=auto;html=1;" edge="1" parent="1" source="H-J13VQ94Ms-UzU_1vvd-4" target="H-J13VQ94Ms-UzU_1vvd-17">
          <mxGeometry relative="1" as="geometry" />
        </mxCell>
        <mxCell id="H-J13VQ94Ms-UzU_1vvd-4" value="" style="image;sketch=0;aspect=fixed;html=1;points=[];align=center;fontSize=12;image=img/lib/mscae/Azure_Firewall.svg;" vertex="1" parent="1">
          <mxGeometry x="560" y="92" width="50" height="50" as="geometry" />
        </mxCell>
        <mxCell id="H-J13VQ94Ms-UzU_1vvd-30" value="" style="edgeStyle=orthogonalEdgeStyle;rounded=0;orthogonalLoop=1;jettySize=auto;html=1;entryX=-0.01;entryY=0.38;entryDx=0;entryDy=0;entryPerimeter=0;" edge="1" parent="1" source="H-J13VQ94Ms-UzU_1vvd-5" target="H-J13VQ94Ms-UzU_1vvd-6">
          <mxGeometry relative="1" as="geometry" />
        </mxCell>
        <mxCell id="H-J13VQ94Ms-UzU_1vvd-5" value="" style="image;sketch=0;aspect=fixed;html=1;points=[];align=center;fontSize=12;image=img/lib/mscae/CustomDomain.svg;shadow=1;" vertex="1" parent="1">
          <mxGeometry x="110" y="96" width="50" height="42" as="geometry" />
        </mxCell>
        <mxCell id="H-J13VQ94Ms-UzU_1vvd-37" value="" style="edgeStyle=orthogonalEdgeStyle;rounded=0;orthogonalLoop=1;jettySize=auto;html=1;entryX=0.04;entryY=0.5;entryDx=0;entryDy=0;entryPerimeter=0;" edge="1" parent="1" source="H-J13VQ94Ms-UzU_1vvd-6" target="H-J13VQ94Ms-UzU_1vvd-20">
          <mxGeometry relative="1" as="geometry">
            <mxPoint x="294" y="120.20000000000005" as="targetPoint" />
          </mxGeometry>
        </mxCell>
        <mxCell id="H-J13VQ94Ms-UzU_1vvd-6" value="" style="image;sketch=0;aspect=fixed;html=1;points=[];align=center;fontSize=12;image=img/lib/mscae/Load_Balancer_feature.svg;" vertex="1" parent="1">
          <mxGeometry x="250" y="98" width="50" height="50" as="geometry" />
        </mxCell>
        <mxCell id="H-J13VQ94Ms-UzU_1vvd-7" value="" style="image;sketch=0;aspect=fixed;html=1;points=[];align=center;fontSize=12;image=img/lib/mscae/App_Service_IPAddress.svg;" vertex="1" parent="1">
          <mxGeometry x="735" y="-10" width="50" height="42" as="geometry" />
        </mxCell>
        <mxCell id="H-J13VQ94Ms-UzU_1vvd-91" value="" style="edgeStyle=orthogonalEdgeStyle;rounded=0;orthogonalLoop=1;jettySize=auto;html=1;" edge="1" parent="1" source="H-J13VQ94Ms-UzU_1vvd-8" target="H-J13VQ94Ms-UzU_1vvd-64">
          <mxGeometry relative="1" as="geometry" />
        </mxCell>
        <mxCell id="H-J13VQ94Ms-UzU_1vvd-8" value="" style="image;sketch=0;aspect=fixed;html=1;points=[];align=center;fontSize=12;image=img/lib/mscae/Virtual_Network_Classic.svg;" vertex="1" parent="1">
          <mxGeometry x="380" y="660" width="50" height="28.000000000000004" as="geometry" />
        </mxCell>
        <mxCell id="H-J13VQ94Ms-UzU_1vvd-11" value="" style="image;sketch=0;aspect=fixed;html=1;points=[];align=center;fontSize=12;image=img/lib/mscae/Docker.svg;" vertex="1" parent="1">
          <mxGeometry x="30" y="189" width="50" height="41" as="geometry" />
        </mxCell>
        <mxCell id="H-J13VQ94Ms-UzU_1vvd-48" value="" style="edgeStyle=orthogonalEdgeStyle;rounded=0;orthogonalLoop=1;jettySize=auto;html=1;" edge="1" parent="1" source="H-J13VQ94Ms-UzU_1vvd-17" target="H-J13VQ94Ms-UzU_1vvd-28">
          <mxGeometry relative="1" as="geometry" />
        </mxCell>
        <mxCell id="H-J13VQ94Ms-UzU_1vvd-17" value="" style="image;sketch=0;aspect=fixed;html=1;points=[];align=center;fontSize=12;image=img/lib/mscae/Key.svg;" vertex="1" parent="1">
          <mxGeometry x="660" y="92" width="31" height="50" as="geometry" />
        </mxCell>
        <mxCell id="H-J13VQ94Ms-UzU_1vvd-32" value="" style="edgeStyle=orthogonalEdgeStyle;rounded=0;orthogonalLoop=1;jettySize=auto;html=1;entryX=0;entryY=0.574;entryDx=0;entryDy=0;entryPerimeter=0;" edge="1" parent="1" source="H-J13VQ94Ms-UzU_1vvd-20" target="H-J13VQ94Ms-UzU_1vvd-61">
          <mxGeometry relative="1" as="geometry" />
        </mxCell>
        <mxCell id="H-J13VQ94Ms-UzU_1vvd-20" value="" style="image;sketch=0;aspect=fixed;html=1;points=[];align=center;fontSize=12;image=img/lib/mscae/VM_Linux.svg;" vertex="1" parent="1">
          <mxGeometry x="380" y="100" width="50" height="46" as="geometry" />
        </mxCell>
        <mxCell id="H-J13VQ94Ms-UzU_1vvd-26" value="" style="edgeStyle=orthogonalEdgeStyle;rounded=0;orthogonalLoop=1;jettySize=auto;html=1;" edge="1" parent="1" source="H-J13VQ94Ms-UzU_1vvd-25" target="H-J13VQ94Ms-UzU_1vvd-5">
          <mxGeometry relative="1" as="geometry" />
        </mxCell>
        <mxCell id="H-J13VQ94Ms-UzU_1vvd-25" value="" style="image;aspect=fixed;html=1;points=[];align=center;fontSize=12;image=img/lib/azure2/identity/Users.svg;" vertex="1" parent="1">
          <mxGeometry x="20" y="92" width="45.71" height="50" as="geometry" />
        </mxCell>
        <mxCell id="H-J13VQ94Ms-UzU_1vvd-57" value="" style="edgeStyle=orthogonalEdgeStyle;rounded=0;orthogonalLoop=1;jettySize=auto;html=1;" edge="1" parent="1" source="H-J13VQ94Ms-UzU_1vvd-28" target="H-J13VQ94Ms-UzU_1vvd-7">
          <mxGeometry relative="1" as="geometry" />
        </mxCell>
        <mxCell id="H-J13VQ94Ms-UzU_1vvd-97" value="" style="edgeStyle=orthogonalEdgeStyle;rounded=0;orthogonalLoop=1;jettySize=auto;html=1;" edge="1" parent="1" source="H-J13VQ94Ms-UzU_1vvd-28" target="H-J13VQ94Ms-UzU_1vvd-96">
          <mxGeometry relative="1" as="geometry" />
        </mxCell>
        <mxCell id="H-J13VQ94Ms-UzU_1vvd-28" value="" style="image;sketch=0;aspect=fixed;html=1;points=[];align=center;fontSize=12;image=img/lib/mscae/VM_Linux.svg;" vertex="1" parent="1">
          <mxGeometry x="730" y="90" width="60" height="55.2" as="geometry" />
        </mxCell>
        <mxCell id="H-J13VQ94Ms-UzU_1vvd-52" style="edgeStyle=orthogonalEdgeStyle;rounded=0;orthogonalLoop=1;jettySize=auto;html=1;entryX=0.5;entryY=0;entryDx=0;entryDy=0;" edge="1" parent="1" source="H-J13VQ94Ms-UzU_1vvd-50" target="H-J13VQ94Ms-UzU_1vvd-41">
          <mxGeometry relative="1" as="geometry" />
        </mxCell>
        <mxCell id="H-J13VQ94Ms-UzU_1vvd-50" value="" style="image;sketch=0;aspect=fixed;html=1;points=[];align=center;fontSize=12;image=img/lib/mscae/Virtual_Network_Classic.svg;" vertex="1" parent="1">
          <mxGeometry x="1013.75" y="-170" width="50" height="28.000000000000004" as="geometry" />
        </mxCell>
        <mxCell id="H-J13VQ94Ms-UzU_1vvd-56" value="" style="group" vertex="1" connectable="0" parent="1">
          <mxGeometry x="960" y="-122" width="262.5" height="480" as="geometry" />
        </mxCell>
        <mxCell id="H-J13VQ94Ms-UzU_1vvd-41" value="" style="shape=ext;double=1;rounded=1;whiteSpace=wrap;html=1;" vertex="1" parent="H-J13VQ94Ms-UzU_1vvd-56">
          <mxGeometry width="262.5" height="480" as="geometry" />
        </mxCell>
        <mxCell id="H-J13VQ94Ms-UzU_1vvd-43" value="" style="image;sketch=0;aspect=fixed;html=1;points=[];align=center;fontSize=12;image=img/lib/mscae/aspect=fixed;html=1;perimeter=none;align=center;shadow=0;dashed=0;fontSize=12;image=img/lib/mscae/Azure_Database_for_MariaDB_servers.svg;fontStyle=1" vertex="1" parent="H-J13VQ94Ms-UzU_1vvd-56">
          <mxGeometry x="32.999999999999886" y="50" width="38" height="50" as="geometry" />
        </mxCell>
        <mxCell id="H-J13VQ94Ms-UzU_1vvd-44" value="" style="image;sketch=0;aspect=fixed;html=1;points=[];align=center;fontSize=12;image=img/lib/mscae/BlobBlock.svg;" vertex="1" parent="H-J13VQ94Ms-UzU_1vvd-56">
          <mxGeometry x="106.75" y="58" width="50" height="42" as="geometry" />
        </mxCell>
        <mxCell id="H-J13VQ94Ms-UzU_1vvd-55" value="" style="image;aspect=fixed;html=1;points=[];align=center;fontSize=12;image=img/lib/azure2/databases/Azure_Database_PostgreSQL_Server.svg;" vertex="1" parent="H-J13VQ94Ms-UzU_1vvd-56">
          <mxGeometry x="33.5" y="134" width="37.5" height="50" as="geometry" />
        </mxCell>
        <mxCell id="H-J13VQ94Ms-UzU_1vvd-58" value="" style="image;aspect=fixed;html=1;points=[];align=center;fontSize=12;image=img/lib/azure2/databases/SQL_Database.svg;" vertex="1" parent="H-J13VQ94Ms-UzU_1vvd-56">
          <mxGeometry x="106.75" y="136" width="40.5" height="54" as="geometry" />
        </mxCell>
        <mxCell id="H-J13VQ94Ms-UzU_1vvd-60" value="" style="image;aspect=fixed;html=1;points=[];align=center;fontSize=12;image=img/lib/azure2/databases/Oracle_Database.svg;" vertex="1" parent="H-J13VQ94Ms-UzU_1vvd-56">
          <mxGeometry x="180" y="47.5" width="48" height="48" as="geometry" />
        </mxCell>
        <mxCell id="H-J13VQ94Ms-UzU_1vvd-77" value="" style="image;aspect=fixed;html=1;points=[];align=center;fontSize=12;image=img/lib/azure2/general/Production_Ready_Database.svg;" vertex="1" parent="H-J13VQ94Ms-UzU_1vvd-56">
          <mxGeometry x="33.25" y="215" width="37.5" height="50" as="geometry" />
        </mxCell>
        <mxCell id="H-J13VQ94Ms-UzU_1vvd-78" value="" style="image;aspect=fixed;html=1;points=[];align=center;fontSize=12;image=img/lib/azure2/general/Production_Ready_Database.svg;" vertex="1" parent="H-J13VQ94Ms-UzU_1vvd-56">
          <mxGeometry x="113" y="215" width="37.5" height="50" as="geometry" />
        </mxCell>
        <mxCell id="H-J13VQ94Ms-UzU_1vvd-79" value="" style="image;aspect=fixed;html=1;points=[];align=center;fontSize=12;image=img/lib/azure2/general/Production_Ready_Database.svg;" vertex="1" parent="H-J13VQ94Ms-UzU_1vvd-56">
          <mxGeometry x="190.5" y="215" width="37.5" height="50" as="geometry" />
        </mxCell>
        <mxCell id="H-J13VQ94Ms-UzU_1vvd-80" value="" style="image;sketch=0;aspect=fixed;html=1;points=[];align=center;fontSize=12;image=img/lib/mscae/CustomDomain.svg;" vertex="1" parent="H-J13VQ94Ms-UzU_1vvd-56">
          <mxGeometry x="21" y="300" width="50" height="42" as="geometry" />
        </mxCell>
        <mxCell id="H-J13VQ94Ms-UzU_1vvd-81" value="" style="image;sketch=0;aspect=fixed;html=1;points=[];align=center;fontSize=12;image=img/lib/mscae/CustomDomain.svg;" vertex="1" parent="H-J13VQ94Ms-UzU_1vvd-56">
          <mxGeometry x="106.25" y="300" width="50" height="42" as="geometry" />
        </mxCell>
        <mxCell id="H-J13VQ94Ms-UzU_1vvd-82" value="" style="image;sketch=0;aspect=fixed;html=1;points=[];align=center;fontSize=12;image=img/lib/mscae/CustomDomain.svg;" vertex="1" parent="H-J13VQ94Ms-UzU_1vvd-56">
          <mxGeometry x="184.25" y="300" width="50" height="42" as="geometry" />
        </mxCell>
        <mxCell id="H-J13VQ94Ms-UzU_1vvd-83" value="" style="image;sketch=0;aspect=fixed;html=1;points=[];align=center;fontSize=12;image=img/lib/mscae/CustomDomain.svg;" vertex="1" parent="H-J13VQ94Ms-UzU_1vvd-56">
          <mxGeometry x="21" y="370" width="50" height="42" as="geometry" />
        </mxCell>
        <mxCell id="H-J13VQ94Ms-UzU_1vvd-84" value="" style="image;sketch=0;aspect=fixed;html=1;points=[];align=center;fontSize=12;image=img/lib/mscae/CustomDomain.svg;" vertex="1" parent="H-J13VQ94Ms-UzU_1vvd-56">
          <mxGeometry x="106.75" y="370" width="50" height="42" as="geometry" />
        </mxCell>
        <mxCell id="H-J13VQ94Ms-UzU_1vvd-85" value="" style="image;sketch=0;aspect=fixed;html=1;points=[];align=center;fontSize=12;image=img/lib/mscae/CustomDomain.svg;" vertex="1" parent="H-J13VQ94Ms-UzU_1vvd-56">
          <mxGeometry x="184.25" y="370" width="50" height="42" as="geometry" />
        </mxCell>
        <mxCell id="H-J13VQ94Ms-UzU_1vvd-86" value="" style="edgeStyle=orthogonalEdgeStyle;rounded=0;orthogonalLoop=1;jettySize=auto;html=1;" edge="1" parent="1" source="H-J13VQ94Ms-UzU_1vvd-61" target="H-J13VQ94Ms-UzU_1vvd-4">
          <mxGeometry relative="1" as="geometry" />
        </mxCell>
        <mxCell id="H-J13VQ94Ms-UzU_1vvd-61" value="" style="image;aspect=fixed;html=1;points=[];align=center;fontSize=12;image=img/lib/azure2/identity/Verification_As_A_Service.svg;" vertex="1" parent="1">
          <mxGeometry x="460" y="90" width="54" height="54" as="geometry" />
        </mxCell>
        <mxCell id="H-J13VQ94Ms-UzU_1vvd-88" style="edgeStyle=orthogonalEdgeStyle;rounded=0;orthogonalLoop=1;jettySize=auto;html=1;entryX=0.528;entryY=-0.1;entryDx=0;entryDy=0;entryPerimeter=0;" edge="1" parent="1" source="H-J13VQ94Ms-UzU_1vvd-20" target="H-J13VQ94Ms-UzU_1vvd-93">
          <mxGeometry relative="1" as="geometry" />
        </mxCell>
        <mxCell id="H-J13VQ94Ms-UzU_1vvd-89" value="" style="group" vertex="1" connectable="0" parent="1">
          <mxGeometry x="225" y="320" width="360" height="270" as="geometry" />
        </mxCell>
        <mxCell id="H-J13VQ94Ms-UzU_1vvd-64" value="" style="shape=ext;double=1;rounded=1;whiteSpace=wrap;html=1;" vertex="1" parent="H-J13VQ94Ms-UzU_1vvd-89">
          <mxGeometry width="360" height="270" as="geometry" />
        </mxCell>
        <mxCell id="H-J13VQ94Ms-UzU_1vvd-65" value="" style="image;sketch=0;aspect=fixed;html=1;points=[];align=center;fontSize=12;image=img/lib/mscae/CustomDomain.svg;" vertex="1" parent="H-J13VQ94Ms-UzU_1vvd-89">
          <mxGeometry x="40" y="20" width="50" height="42" as="geometry" />
        </mxCell>
        <mxCell id="H-J13VQ94Ms-UzU_1vvd-66" value="" style="image;sketch=0;aspect=fixed;html=1;points=[];align=center;fontSize=12;image=img/lib/mscae/CustomDomain.svg;" vertex="1" parent="H-J13VQ94Ms-UzU_1vvd-89">
          <mxGeometry x="106" y="20" width="50" height="42" as="geometry" />
        </mxCell>
        <mxCell id="H-J13VQ94Ms-UzU_1vvd-67" value="" style="image;sketch=0;aspect=fixed;html=1;points=[];align=center;fontSize=12;image=img/lib/mscae/CustomDomain.svg;" vertex="1" parent="H-J13VQ94Ms-UzU_1vvd-89">
          <mxGeometry x="170" y="20" width="50" height="42" as="geometry" />
        </mxCell>
        <mxCell id="H-J13VQ94Ms-UzU_1vvd-68" value="" style="image;sketch=0;aspect=fixed;html=1;points=[];align=center;fontSize=12;image=img/lib/mscae/CustomDomain.svg;" vertex="1" parent="H-J13VQ94Ms-UzU_1vvd-89">
          <mxGeometry x="245" y="20" width="50" height="42" as="geometry" />
        </mxCell>
        <mxCell id="H-J13VQ94Ms-UzU_1vvd-69" value="" style="image;sketch=0;aspect=fixed;html=1;points=[];align=center;fontSize=12;image=img/lib/mscae/CustomDomain.svg;" vertex="1" parent="H-J13VQ94Ms-UzU_1vvd-89">
          <mxGeometry x="40" y="92" width="50" height="42" as="geometry" />
        </mxCell>
        <mxCell id="H-J13VQ94Ms-UzU_1vvd-70" value="" style="image;sketch=0;aspect=fixed;html=1;points=[];align=center;fontSize=12;image=img/lib/mscae/CustomDomain.svg;" vertex="1" parent="H-J13VQ94Ms-UzU_1vvd-89">
          <mxGeometry x="110" y="92" width="50" height="42" as="geometry" />
        </mxCell>
        <mxCell id="H-J13VQ94Ms-UzU_1vvd-71" value="" style="image;sketch=0;aspect=fixed;html=1;points=[];align=center;fontSize=12;image=img/lib/mscae/CustomDomain.svg;" vertex="1" parent="H-J13VQ94Ms-UzU_1vvd-89">
          <mxGeometry x="170" y="92" width="50" height="42" as="geometry" />
        </mxCell>
        <mxCell id="H-J13VQ94Ms-UzU_1vvd-72" value="" style="image;sketch=0;aspect=fixed;html=1;points=[];align=center;fontSize=12;image=img/lib/mscae/CustomDomain.svg;" vertex="1" parent="H-J13VQ94Ms-UzU_1vvd-89">
          <mxGeometry x="245" y="92" width="50" height="42" as="geometry" />
        </mxCell>
        <mxCell id="H-J13VQ94Ms-UzU_1vvd-73" value="" style="image;sketch=0;aspect=fixed;html=1;points=[];align=center;fontSize=12;image=img/lib/mscae/CustomDomain.svg;" vertex="1" parent="H-J13VQ94Ms-UzU_1vvd-89">
          <mxGeometry x="40" y="160" width="50" height="42" as="geometry" />
        </mxCell>
        <mxCell id="H-J13VQ94Ms-UzU_1vvd-74" value="" style="image;sketch=0;aspect=fixed;html=1;points=[];align=center;fontSize=12;image=img/lib/mscae/CustomDomain.svg;" vertex="1" parent="H-J13VQ94Ms-UzU_1vvd-89">
          <mxGeometry x="106" y="160" width="50" height="42" as="geometry" />
        </mxCell>
        <mxCell id="H-J13VQ94Ms-UzU_1vvd-75" value="" style="image;sketch=0;aspect=fixed;html=1;points=[];align=center;fontSize=12;image=img/lib/mscae/CustomDomain.svg;" vertex="1" parent="H-J13VQ94Ms-UzU_1vvd-89">
          <mxGeometry x="170" y="160" width="50" height="42" as="geometry" />
        </mxCell>
        <mxCell id="H-J13VQ94Ms-UzU_1vvd-76" value="" style="image;sketch=0;aspect=fixed;html=1;points=[];align=center;fontSize=12;image=img/lib/mscae/CustomDomain.svg;" vertex="1" parent="H-J13VQ94Ms-UzU_1vvd-89">
          <mxGeometry x="245" y="160" width="50" height="42" as="geometry" />
        </mxCell>
        <mxCell id="H-J13VQ94Ms-UzU_1vvd-90" value="" style="image;sketch=0;aspect=fixed;html=1;points=[];align=center;fontSize=12;image=img/lib/mscae/WebAppWordPress.svg;" vertex="1" parent="H-J13VQ94Ms-UzU_1vvd-89">
          <mxGeometry x="56.99999999999994" y="210" width="49" height="50" as="geometry" />
        </mxCell>
        <mxCell id="H-J13VQ94Ms-UzU_1vvd-94" value="" style="edgeStyle=orthogonalEdgeStyle;rounded=0;orthogonalLoop=1;jettySize=auto;html=1;entryX=0.5;entryY=0;entryDx=0;entryDy=0;" edge="1" parent="1" source="H-J13VQ94Ms-UzU_1vvd-93" target="H-J13VQ94Ms-UzU_1vvd-64">
          <mxGeometry relative="1" as="geometry">
            <mxPoint x="405" y="329" as="targetPoint" />
          </mxGeometry>
        </mxCell>
        <mxCell id="H-J13VQ94Ms-UzU_1vvd-93" value="" style="image;sketch=0;aspect=fixed;html=1;points=[];align=center;fontSize=12;image=img/lib/mscae/Kubernetes.svg;" vertex="1" parent="1">
          <mxGeometry x="384.16999999999996" y="210" width="41.67" height="40" as="geometry" />
        </mxCell>
        <mxCell id="H-J13VQ94Ms-UzU_1vvd-96" value="" style="image;sketch=0;aspect=fixed;html=1;points=[];align=center;fontSize=12;image=img/lib/mscae/Kubernetes.svg;" vertex="1" parent="1">
          <mxGeometry x="839.9999999999998" y="98" width="41.67" height="40" as="geometry" />
        </mxCell>
        <mxCell id="H-J13VQ94Ms-UzU_1vvd-99" style="edgeStyle=orthogonalEdgeStyle;rounded=0;orthogonalLoop=1;jettySize=auto;html=1;entryX=0;entryY=0.5;entryDx=0;entryDy=0;" edge="1" parent="1" source="H-J13VQ94Ms-UzU_1vvd-96" target="H-J13VQ94Ms-UzU_1vvd-41">
          <mxGeometry relative="1" as="geometry">
            <mxPoint x="930" y="120" as="targetPoint" />
          </mxGeometry>
        </mxCell>
      </root>
    </mxGraphModel>
  </diagram>
</mxfile>
